# AST/ASF file generated using VICON BodyLanguage
# -----------------------------------------------
:version 1.10
:name VICON
:units
  mass 1.0
  length 0.45
  angle deg
:documentation
   .ast/.asf automatically generated from VICON data using
   VICON BodyBuilder and BodyLanguage model FoxedUp or BRILLIANT.MOD
:root
   order TX TY TZ RX RY RZ
   axis XYZ
   position 0 0 0  
   orientation 0 0 0 
:bonedata
  begin
     id 1 
     name lhipjoint
     direction 0.711131 -0.61297 0.344326 
     length 2.29162 
     axis 0 0 0  XYZ
  end
  begin
     id 2 
     name lfemur
     direction 0.34202 -0.939693 0  
     length 6.71424  
     axis 0 0 20  XYZ
    dof rx ry rz
    limits (-160.0 20.0)
           (-70.0 70.0)
           (-60.0 70.0)
  end
  begin
     id 3 
     name ltibia
     direction 0.34202 -0.939693 0   
     length 6.7087   
     axis 0 0 20   XYZ
    dof rx
    limits (-10.0 170.0)
  end
  begin
     id 4 
     name lfoot
     direction 0.0230374 -0.0632947 0.997729   
     length 1.56743   
     axis -90 7.62852e-016 20   XYZ
    dof rx rz
    limits (-45.0 90.0)
           (-70.0 20.0)
  end
  begin
     id 5 
     name ltoes
     direction 1.53585e-011 -4.21885e-011 1   
     length 0.802914   
     axis -90 7.62852e-016 20   XYZ
    dof rx
    limits (-90.0 20.0)
  end
  begin
     id 6 
     name rhipjoint
     direction -0.733192 -0.592884 0.333043   
     length 2.36925  
     axis 0 0 0  XYZ 
  end
  begin
     id 7 
     name rfemur
     direction -0.34202 -0.939693 0   
     length 6.67027   
     axis 0 0 -20   XYZ
    dof rx ry rz
    limits (-160.0 20.0)
           (-70.0 70.0)
           (-70.0 60.0)
  end
  begin
     id 8 
     name rtibia
     direction -0.34202 -0.939693 0   
     length 6.6862   
     axis 0 0 -20   XYZ
    dof rx
    limits (-10.0 170.0)
 end
 begin
     id 9 
     name rfoot
     direction -0.0949739 -0.260939 0.960672   
     length 1.67698  
     axis -90 -7.62852e-016 -20   XYZ
    dof rx rz
    limits (-45.0 90.0)
           (-20.0 70.0)
  end
  begin
     id 10 
     name rtoes
     direction -1.5353e-011 -4.21868e-011 1   
     length 0.846298   
     axis -90 -7.62852e-016 -20   XYZ
    dof rx
    limits (-90.0 20.0)
  end
  begin
     id 11 
     name lowerback
     direction -0.0206828 0.999785 -0.00109866   
     length 2.04382   
     axis 0 0 0   XYZ
    dof rx ry rz
    limits (-20.0 45.0)
           (-30.0 30.0)
           (-30.0 30.0)
  end
  begin
     id 12 
     name upperback
     direction -0.0105003 0.999727 -0.0208904   
     length 2.04538   
     axis 0 0 0   XYZ
    dof rx ry rz
    limits (-20.0 45.0)
           (-30.0 30.0)
           (-30.0 30.0)
  end
  begin
     id 13 
     name thorax
     direction -0.000416255 0.999808 -0.0196023   
     length 2.0399   
     axis 0 0 0   XYZ
    dof rx ry rz
    limits (-20.0 45.0)
           (-30.0 30.0)
           (-30.0 30.0)
  end
  begin
     id 14 
     name lowerneck
     direction 0.0627861 0.989205 0.13241   
     length 1.46207   
     axis 0 0 0   XYZ
    dof rx ry rz
    limits (-20.0 45.0)
           (-30.0 30.0)
           (-30.0 30.0)
  end
  begin
     id 15 
     name upperneck
     direction 0.00627179 0.994526 0.104303   
     length 1.41419   
     axis 0 0 0   XYZ
    dof rx ry rz
    limits (-20.0 45.0)
           (-30.0 30.0)
           (-30.0 30.0)
  end
  begin
     id 16
     name head
     direction -0.00443838 0.999688 0.0245968  
     length 1.50718  
     axis 0 0 0   XYZ
    dof rx ry rz
    limits (-20.0 45.0)
           (-30.0 30.0)
           (-30.0 30.0)
  end
  begin
     id 17 
     name lclavicle
     direction 0.758742 0.650995 -0.0227258  
     length 2.86888  
     axis 0 0 0   XYZ
    dof ry rz
    limits (-20.0 10.0)
           (0.0 20.0)
  end
  begin
     id 18 
     name lhumerus
     direction 1 -4.48962e-011 1.06664e-027   
     length 4.65776   
     axis -180 -30 -90   XYZ
    dof rx ry rz
    limits (-60.0 90.0)
           (-90.0 90.0)
           (-90.0 90.0)
  end
  begin
     id 19
     name lradius
     direction 1 -4.48968e-011 1.40404e-026   
     length 3.55539   
     axis -180 -30 -90   XYZ
    dof rx
    limits (-10.0 170.0)
  end
  begin
     id 20
     name lwrist
     direction 1 -4.48976e-011 3.32647e-026   
     length 1.77769   
     axis -2.20186e-014 90 90   XYZ
    dof ry
    limits (-180.0 0.0)
 end
  begin
     id 21 
     name lhand
     direction 1 -4.48982e-011 6.65293e-026   
     length 0.707264   
     axis -4.24514e-014 90 90   XYZ
    dof rx rz
    limits (-90.0 90.0)
           (-45.0 45.0)
  end
  begin
     id 22 
     name lfingers
     direction 1 -4.48966e-011 1.33059e-025   
     length 0.570215   
     axis -8.49028e-014 90 90   XYZ
    dof rx
    limits (0.0 90.0)
  end
  begin
     id 23
     name lthumb
     direction 0.707107 -6.3493e-011 0.707107   
     length 0.818718   
     axis -90 45 2.85299e-015   XYZ
    dof rx rz
    limits (-45.0 45.0)
           (-45.0 45.0)
  end
  begin
     id 24 
     name rclavicle
     direction -0.870343 0.482028 -0.100759   
     length 3.2251  
     axis 0 0 0   XYZ 
    dof ry rz
    limits (-10.0 20.0)
           (-20.0 0.0)
  end
  begin
     id 25 
     name rhumerus
     direction -1 -4.48974e-011 -9.45849e-028  
     length 4.71925   
     axis -180 30 90   XYZ
    dof rx ry rz
    limits (-90.0 60.0)
           (-90.0 90.0)
           (-90.0 90.0)
  end
  begin
     id 26 
     name rradius
     direction -1 -4.48965e-011 1.17607e-026   
     length 3.5699   
     axis -180 30 90   XYZ
    dof rx
    limits (-10.0 170.0)
  end
  begin
     id 27 
     name rwrist
     direction -1 -4.48968e-011 3.32647e-026   
     length 1.78495   
     axis -2.20186e-014 -90 -90   XYZ
    dof ry
    limits (-180.0 0.0)
  end
  begin
     id 28
     name rhand
     direction -1 -4.48995e-011 6.65293e-026   
     length 0.507757   
     axis -4.24514e-014 -90 -90   XYZ
    dof rx rz
    limits (-90.0 90.0)
           (-45.0 45.0)
  end
  begin
     id 29
     name rfingers
     direction -1 -4.48864e-011 1.33059e-025   
     length 0.409367   
     axis -8.49028e-014 -90 -90   XYZ
    dof rx
    limits (0.0 90.0)
  end
  begin
     id 30
     name rthumb
     direction -0.707107 -6.3494e-011 0.707107   
     length 0.587771   
     axis -90 -45 -2.85299e-015   XYZ
    dof rx rz
    limits (-45.0 45.0)
           (-45.0 45.0)
  end
:hierarchy
  begin
    root lhipjoint rhipjoint lowerback
    lhipjoint lfemur
    lfemur ltibia
    ltibia lfoot
    lfoot ltoes
    rhipjoint rfemur
    rfemur rtibia
    rtibia rfoot
    rfoot rtoes
    lowerback upperback
    upperback thorax
    thorax lowerneck lclavicle rclavicle
    lowerneck upperneck
    upperneck head
    lclavicle lhumerus
    lhumerus lradius
    lradius lwrist
    lwrist lhand lthumb
    lhand lfingers
    rclavicle rhumerus
    rhumerus rradius
    rradius rwrist
    rwrist rhand rthumb
    rhand rfingers
  end

#!OML:ASF E:\Steps\Project 1\Capture day 1\Session 2\Subject.ASF
:FULLY-SPECIFIED
:DEGREES
43
root -1.06308 17.9848 21.2635 -152.252 -2.00412 177.186
lowerback -25.5498 -1.99971 -6.02338
upperback 2.09139 -0.993529 0.566434
thorax 16.307 -1.04681 3.56485
lowerneck 0.675445 -1.53528 -0.79094
upperneck 23.53 -5.52839 3.59892
head 7.20782 -3.35321 0.864732
rclavicle 7.45443e-017 -9.0447e-015
rhumerus -44.175 -16.7374 -73.6307
rradius 41.8085
rwrist -3.85016
rhand -6.42862 -56.611
rfingers 7.12502
rthumb 19.4203 -85.6612
lclavicle 7.45443e-017 -9.0447e-015
lhumerus -29.9079 3.88624 82.3116
lradius 20.2456
lwrist -4.21238
lhand -20.8288 -10.0807
lfingers 7.12502
lthumb 5.53966 19.8269
rfemur -26.7561 1.53847 19.0967
rtibia 5.05188
rfoot -14.9045 3.29473
rtoes -10.0374
lfemur -27.2623 -6.55875 -24.3496
ltibia 6.37609
lfoot -4.58857 -3.21132
ltoes -33.6553
44
root -1.05121 17.9995 21.2738 -152.282 -2.0428 177.343
lowerback -25.2279 -1.95463 -5.95493
upperback 1.98522 -0.987933 0.603778
thorax 16.015 -1.03109 3.57462
lowerneck 0.865721 -1.62332 -0.824243
upperneck 23.4546 -5.64491 3.55128
head 7.15242 -3.42221 0.852739
rclavicle -8.52289e-015 -2.08724e-015
rhumerus -44.2612 -16.7922 -73.6762
rradius 41.8762
rwrist -3.81555
rhand -6.03528 -56.8211
rfingers 7.12502
rthumb 19.7984 -85.8327
lclavicle -8.52289e-015 -2.08724e-015
lhumerus -30.0186 4.57636 81.8953
lradius 19.899
lwrist -4.67325
lhand -20.9437 -11.1621
lfingers 7.12502
lthumb 5.42866 18.7483
rfemur -26.8103 2.40468 19.0432
rtibia 5.09298
rfoot -14.8634 2.42437
rtoes -9.4212
lfemur -27.4343 -6.56081 -23.9913
ltibia 6.57848
lfoot -4.61824 -2.97958
ltoes -34.1204
45
root -1.03511 18.0225 21.2968 -152.343 -2.00359 177.559
lowerback -24.7168 -1.89125 -5.92554
upperback 1.50278 -0.96309 0.591558
thorax 15.8596 -1.02882 3.72312
lowerneck 0.91645 -1.59773 -0.797355
upperneck 23.5574 -5.64654 3.55219
head 7.17717 -3.43014 0.847378
rclavicle -1.49089e-015 -4.96962e-015
rhumerus -44.3683 -16.6288 -73.7873
rradius 41.9305
rwrist -4.08318
rhand -6.08536 -57.4759
rfingers 7.12502
rthumb 19.7503 -86.4925
lclavicle -1.49089e-015 -4.96962e-015
lhumerus -30.2392 4.98696 81.6043
lradius 19.6207
lwrist -4.97125
lhand -21.0887 -12.0482
lfingers 7.12502
lthumb 5.28868 17.8658
rfemur -27.0596 3.01984 19.135
rtibia 5.37564
rfoot -14.7393 1.88642
rtoes -9.21812
lfemur -27.7162 -6.44403 -23.5213
ltibia 6.92732
lfoot -4.6496 -2.68599
ltoes -35.1841
46
root -1.02584 18.029 21.3017 -152.402 -1.91373 177.582
lowerback -24.6524 -1.87935 -5.98829
upperback 1.5459 -0.929545 0.604371
thorax 15.8731 -1.01998 3.78763
lowerneck 0.840606 -1.5834 -0.934203
upperneck 23.5733 -5.64333 3.68491
head 7.20216 -3.42671 0.911984
rclavicle 1.16786e-015 -1.39149e-015
rhumerus -44.1786 -16.3218 -74.0459
rradius 41.9833
rwrist -4.71025
rhand -5.66664 -56.5028
rfingers 7.12502
rthumb 20.1528 -85.4775
lclavicle 1.16786e-015 -1.39149e-015
lhumerus -30.188 5.44041 81.3958
lradius 19.3393
lwrist -5.17905
lhand -21.358 -12.5615
lfingers 7.12502
lthumb 5.0287 17.3588
rfemur -27.2212 2.83355 19.251
rtibia 5.69717
rfoot -14.7403 2.08458
rtoes -10.1918
lfemur -27.7908 -6.46446 -23.3997
ltibia 7.11381
lfoot -4.70843 -2.4966
ltoes -36.0512
47
root -1.02264 18.0247 21.2894 -152.478 -1.8926 177.529
lowerback -24.6165 -1.88256 -5.98222
upperback 1.51074 -0.933237 0.546679
thorax 15.808 -1.01596 3.71483
lowerneck 0.756919 -1.5729 -0.952703
upperneck 23.7704 -5.67726 3.69792
head 7.28393 -3.45051 0.911961
rclavicle -3.47873e-015 4.37326e-015
rhumerus -44.3323 -16.1937 -74.1234
rradius 42.1886
rwrist -4.44024
rhand -5.73872 -56.6124
rfingers 7.12502
rthumb 20.0835 -85.5944
lclavicle -3.47873e-015 4.37326e-015
lhumerus -30.3927 5.79038 81.1067
lradius 19.182
lwrist -5.3205
lhand -21.5679 -12.823
lfingers 7.12502
lthumb 4.82598 17.102
rfemur -27.0781 2.72077 19.2542
rtibia 5.69228
rfoot -14.7872 2.16348
rtoes -10.9763
lfemur -27.6629 -6.59205 -23.4472
ltibia 7.11147
lfoot -4.75645 -2.40993
ltoes -36.3083
48
root -1.01916 18.0235 21.2772 -152.603 -1.90486 177.464
lowerback -24.4658 -1.87899 -5.96961
upperback 1.46372 -0.935013 0.470287
thorax 15.6611 -1.00669 3.61775
lowerneck 0.77678 -1.59603 -0.859192
upperneck 23.8371 -5.72625 3.638
head 7.30044 -3.47663 0.872613
rclavicle -7.41715e-015 7.35503e-015
rhumerus -44.5854 -16.0489 -74.2383
rradius 42.5049
rwrist -4.32384
rhand -4.53015 -56.722
rfingers 7.12502
rthumb 21.2448 -85.5777
lclavicle -7.41715e-015 7.35503e-015
lhumerus -30.5896 5.91565 80.8577
lradius 19.0153
lwrist -5.46356
lhand -21.818 -13.3666
lfingers 7.12502
lthumb 4.58451 16.5638
rfemur -26.8061 2.64098 19.2164
rtibia 5.5513
rfoot -14.7604 2.2294
rtoes -10.9688
lfemur -27.4412 -6.77213 -23.4881
ltibia 7.04359
lfoot -4.77083 -2.27613
ltoes -36.263
49
root -1.01246 18.0259 21.2698 -152.728 -1.94499 177.37
lowerback -24.3681 -1.92265 -6.12393
upperback 1.47069 -0.954081 0.481894
thorax 15.6193 -1.0273 3.71357
lowerneck 0.73594 -1.63915 -0.933945
upperneck 23.8071 -5.76627 3.62907
head 7.30007 -3.49858 0.879615
rclavicle -1.13556e-014 8.94531e-016
rhumerus -44.6732 -15.8496 -74.2743
rradius 42.7673
rwrist -4.36674
rhand -4.12223 -56.6624
rfingers 7.12502
rthumb 21.6366 -85.4735
lclavicle -1.13556e-014 8.94531e-016
lhumerus -30.6203 6.08648 80.7543
lradius 18.8077
lwrist -5.51393
lhand -22.0193 -13.9468
lfingers 7.12502
lthumb 4.39009 15.9877
rfemur -26.5917 2.63334 19.1222
rtibia 5.48764
rfoot -14.8183 2.17064
rtoes -10.8189
lfemur -27.2615 -6.95626 -23.524
ltibia 7.01563
lfoot -4.80446 -2.11644
ltoes -36.8788
